<svg width="285" height="172" viewBox="0 0 285 172" fill="none" xmlns="http://www.w3.org/2000/svg">
<rect width="285" height="172" fill="white"/>
<path d="M60.9809 45.0566V47H50.5023V45.0566H60.9809ZM51.1078 45.0566V50.4961H48.7641L48.6762 45.0566H51.1078ZM62.8754 45.0566L62.7289 50.4863H60.4242V45.0566H62.8754ZM59.2621 32.7812V34.7344H52.6996V32.7812H59.2621ZM61.1371 32.7812V47H58.6957V32.7812H61.1371ZM52.2113 32.7812H54.6625L54.3207 38.543C54.2686 39.4544 54.1742 40.2747 54.0375 41.0039C53.9008 41.7331 53.7348 42.3874 53.5395 42.9668C53.3506 43.5397 53.1358 44.0475 52.8949 44.4902C52.654 44.9264 52.3969 45.304 52.1234 45.623C51.85 45.9421 51.5701 46.2155 51.2836 46.4434C51.0036 46.6647 50.727 46.8503 50.4535 47H49.1449V45.0566H49.7797C49.9555 44.8939 50.1508 44.6595 50.3656 44.3535C50.5805 44.041 50.7888 43.6341 50.9906 43.1328C51.199 42.625 51.3812 41.9967 51.5375 41.248C51.6937 40.4993 51.8012 39.5977 51.8598 38.543L52.2113 32.7812ZM71.9023 36.4336V38.3086H66.7461V36.4336H71.9023ZM73.748 36.4336V47H71.3945V36.4336H73.748ZM66.1699 36.4336H68.4941L68.2109 41.6582C68.1719 42.4329 68.0937 43.1165 67.9766 43.709C67.8659 44.2949 67.7161 44.7995 67.5273 45.2227C67.3385 45.6393 67.1074 45.9779 66.834 46.2383C66.5605 46.4987 66.2415 46.6908 65.877 46.8145C65.5124 46.9382 65.1022 47 64.6465 47H63.9141L63.9043 45.0664L64.2754 45.0371C64.5163 45.0176 64.7246 44.9557 64.9004 44.8516C65.0762 44.7409 65.2259 44.5846 65.3496 44.3828C65.4798 44.181 65.584 43.9206 65.6621 43.6016C65.7467 43.2826 65.8118 42.9049 65.8574 42.4688C65.9095 42.0326 65.9486 41.5247 65.9746 40.9453L66.1699 36.4336ZM78.6246 41.834H81.066L78.068 47H75.6363L78.6246 41.834ZM80.3434 36.4336H84.8746V47H82.5309V38.2891H80.3434C79.9006 38.2891 79.5361 38.3672 79.2496 38.5234C78.9631 38.6732 78.7516 38.8717 78.6148 39.1191C78.4781 39.36 78.4098 39.6074 78.4098 39.8613C78.4098 40.1152 78.4716 40.3594 78.5953 40.5938C78.7255 40.8281 78.9241 41.0202 79.191 41.1699C79.4645 41.3197 79.8062 41.3945 80.2164 41.3945H83.3219V43.1133H80.2164C79.5654 43.1133 78.9827 43.0319 78.4684 42.8691C77.954 42.6999 77.5178 42.4688 77.1598 42.1758C76.8017 41.8763 76.5283 41.528 76.3395 41.1309C76.1506 40.7272 76.0562 40.2878 76.0562 39.8125C76.0562 39.3242 76.1539 38.875 76.3492 38.4648C76.5445 38.0547 76.8245 37.6966 77.1891 37.3906C77.5602 37.0846 78.0094 36.8503 78.5367 36.6875C79.0706 36.5182 79.6728 36.4336 80.3434 36.4336ZM94.6863 36.4336H97.0398L96.9227 40.1543C96.8901 41.235 96.7664 42.1628 96.5516 42.9375C96.3367 43.7122 96.0568 44.3665 95.7117 44.9004C95.3667 45.4277 94.976 45.8607 94.5398 46.1992C94.1102 46.5378 93.6577 46.8047 93.1824 47H92.4891V45.1445L92.8211 45.125C93.101 44.8255 93.3419 44.526 93.5437 44.2266C93.7521 43.9206 93.9279 43.5853 94.0711 43.2207C94.2143 42.8496 94.325 42.4167 94.4031 41.9219C94.4878 41.4271 94.5431 40.8379 94.5691 40.1543L94.6863 36.4336ZM95.3113 36.4336H102.011V47H99.6668V38.4258H95.3113V36.4336ZM91.952 45.125H103.456V50.1445H101.102V47H94.3348V50.1445H91.9422L91.952 45.125ZM104.836 41.834V41.6094C104.836 40.8477 104.947 40.1413 105.168 39.4902C105.39 38.8327 105.709 38.263 106.125 37.7812C106.549 37.293 107.063 36.9154 107.668 36.6484C108.28 36.375 108.97 36.2383 109.739 36.2383C110.513 36.2383 111.204 36.375 111.809 36.6484C112.421 36.9154 112.939 37.293 113.362 37.7812C113.785 38.263 114.107 38.8327 114.329 39.4902C114.55 40.1413 114.661 40.8477 114.661 41.6094V41.834C114.661 42.5957 114.55 43.3021 114.329 43.9531C114.107 44.6042 113.785 45.1738 113.362 45.6621C112.939 46.1439 112.424 46.5215 111.819 46.7949C111.213 47.0618 110.526 47.1953 109.758 47.1953C108.983 47.1953 108.29 47.0618 107.678 46.7949C107.073 46.5215 106.558 46.1439 106.135 45.6621C105.712 45.1738 105.39 44.6042 105.168 43.9531C104.947 43.3021 104.836 42.5957 104.836 41.834ZM107.19 41.6094V41.834C107.19 42.3092 107.239 42.7585 107.336 43.1816C107.434 43.6048 107.587 43.9759 107.795 44.2949C108.004 44.6139 108.271 44.8646 108.596 45.0469C108.922 45.2292 109.309 45.3203 109.758 45.3203C110.194 45.3203 110.572 45.2292 110.891 45.0469C111.217 44.8646 111.483 44.6139 111.692 44.2949C111.9 43.9759 112.053 43.6048 112.151 43.1816C112.255 42.7585 112.307 42.3092 112.307 41.834V41.6094C112.307 41.1406 112.255 40.6979 112.151 40.2812C112.053 39.8581 111.897 39.4837 111.682 39.1582C111.474 38.8327 111.207 38.5788 110.881 38.3965C110.562 38.2077 110.181 38.1133 109.739 38.1133C109.296 38.1133 108.912 38.2077 108.586 38.3965C108.267 38.5788 108.004 38.8327 107.795 39.1582C107.587 39.4837 107.434 39.8581 107.336 40.2812C107.239 40.6979 107.19 41.1406 107.19 41.6094ZM121.1 45.3203C121.484 45.3203 121.829 45.2454 122.135 45.0957C122.447 44.9395 122.698 44.7246 122.887 44.4512C123.082 44.1777 123.189 43.862 123.209 43.5039H125.426C125.413 44.1875 125.211 44.8092 124.82 45.3691C124.43 45.929 123.912 46.375 123.268 46.707C122.623 47.0326 121.91 47.1953 121.129 47.1953C120.322 47.1953 119.618 47.0586 119.02 46.7852C118.421 46.5052 117.923 46.1211 117.525 45.6328C117.128 45.1445 116.829 44.5814 116.627 43.9434C116.432 43.3053 116.334 42.6217 116.334 41.8926V41.5508C116.334 40.8216 116.432 40.138 116.627 39.5C116.829 38.8555 117.128 38.2891 117.525 37.8008C117.923 37.3125 118.421 36.9316 119.02 36.6582C119.618 36.3783 120.318 36.2383 121.119 36.2383C121.965 36.2383 122.708 36.4076 123.346 36.7461C123.984 37.0781 124.485 37.5436 124.85 38.1426C125.221 38.735 125.413 39.4251 125.426 40.2129H123.209C123.189 39.8223 123.092 39.4707 122.916 39.1582C122.747 38.8392 122.506 38.5853 122.193 38.3965C121.887 38.2077 121.52 38.1133 121.09 38.1133C120.615 38.1133 120.221 38.2109 119.908 38.4062C119.596 38.5951 119.352 38.8555 119.176 39.1875C119 39.513 118.873 39.8809 118.795 40.291C118.723 40.6947 118.688 41.1146 118.688 41.5508V41.8926C118.688 42.3288 118.723 42.752 118.795 43.1621C118.867 43.5723 118.99 43.9401 119.166 44.2656C119.348 44.5846 119.596 44.8418 119.908 45.0371C120.221 45.2259 120.618 45.3203 121.1 45.3203ZM132.285 36.4336V47H129.921V36.4336H132.285ZM135.752 36.4336V38.2891H126.513V36.4336H135.752ZM140.657 45.8477L143.529 36.4336H146.048L141.81 48.6113C141.712 48.8717 141.585 49.1549 141.429 49.4609C141.273 49.7669 141.068 50.0566 140.814 50.3301C140.566 50.61 140.257 50.8346 139.886 51.0039C139.515 51.1797 139.066 51.2676 138.538 51.2676C138.33 51.2676 138.128 51.248 137.933 51.209C137.744 51.1764 137.565 51.1406 137.396 51.1016L137.386 49.3047C137.451 49.3112 137.529 49.3177 137.62 49.3242C137.718 49.3307 137.796 49.334 137.855 49.334C138.245 49.334 138.571 49.2852 138.831 49.1875C139.092 49.0964 139.303 48.9466 139.466 48.7383C139.635 48.5299 139.779 48.25 139.896 47.8984L140.657 45.8477ZM139.036 36.4336L141.546 44.3438L141.966 46.8242L140.335 47.2441L136.497 36.4336H139.036ZM154.636 36.4336V38.3086H149.421V36.4336H154.636ZM149.977 36.4336V47H147.624V36.4336H149.977ZM156.481 36.4336V47H154.118V36.4336H156.481ZM165.079 44.8809V39.8418C165.079 39.4642 165.01 39.1387 164.873 38.8652C164.737 38.5918 164.528 38.3802 164.248 38.2305C163.975 38.0807 163.63 38.0059 163.213 38.0059C162.829 38.0059 162.497 38.071 162.217 38.2012C161.937 38.3314 161.719 38.5072 161.563 38.7285C161.407 38.9499 161.329 39.2005 161.329 39.4805H158.985C158.985 39.0638 159.086 38.6602 159.287 38.2695C159.489 37.8789 159.782 37.5306 160.166 37.2246C160.551 36.9186 161.01 36.6777 161.543 36.502C162.077 36.3262 162.676 36.2383 163.34 36.2383C164.135 36.2383 164.838 36.3717 165.45 36.6387C166.068 36.9056 166.553 37.3092 166.905 37.8496C167.263 38.3835 167.442 39.054 167.442 39.8613V44.5586C167.442 45.0404 167.474 45.4733 167.539 45.8574C167.611 46.235 167.712 46.5638 167.842 46.8438V47H165.43C165.319 46.7461 165.232 46.4238 165.166 46.0332C165.108 45.6361 165.079 45.252 165.079 44.8809ZM165.42 40.5742L165.44 42.0293H163.75C163.314 42.0293 162.93 42.0716 162.598 42.1562C162.266 42.2344 161.989 42.3516 161.768 42.5078C161.547 42.6641 161.381 42.8529 161.27 43.0742C161.159 43.2956 161.104 43.5462 161.104 43.8262C161.104 44.1061 161.169 44.3633 161.299 44.5977C161.429 44.8255 161.618 45.0046 161.866 45.1348C162.12 45.265 162.426 45.3301 162.784 45.3301C163.265 45.3301 163.685 45.2324 164.043 45.0371C164.408 44.8353 164.694 44.5911 164.903 44.3047C165.111 44.0117 165.222 43.735 165.235 43.4746L165.996 44.5195C165.918 44.7865 165.785 45.0729 165.596 45.3789C165.407 45.6849 165.16 45.9779 164.854 46.2578C164.554 46.5312 164.193 46.7559 163.77 46.9316C163.353 47.1074 162.871 47.1953 162.325 47.1953C161.635 47.1953 161.019 47.0586 160.479 46.7852C159.939 46.5052 159.515 46.1309 159.209 45.6621C158.903 45.1868 158.75 44.6497 158.75 44.0508C158.75 43.4909 158.855 42.9961 159.063 42.5664C159.278 42.1302 159.59 41.7656 160 41.4727C160.417 41.1797 160.925 40.9583 161.524 40.8086C162.123 40.6523 162.806 40.5742 163.575 40.5742H165.42ZM177.722 36.4336V47H175.369V36.4336H177.722ZM184.617 36.4336L179.861 42.791H177.175L176.863 40.6621H178.826L181.677 36.4336H184.617ZM181.863 47L178.679 42.3906L180.535 41.0527L184.959 47H181.863ZM200.151 42.3711H202.593C202.514 43.3021 202.254 44.1322 201.811 44.8613C201.369 45.584 200.747 46.1536 199.946 46.5703C199.145 46.987 198.172 47.1953 197.026 47.1953C196.147 47.1953 195.356 47.0391 194.653 46.7266C193.95 46.4076 193.348 45.9583 192.846 45.3789C192.345 44.793 191.961 44.0866 191.694 43.2598C191.434 42.4329 191.304 41.5085 191.304 40.4863V39.3047C191.304 38.2826 191.437 37.3581 191.704 36.5312C191.977 35.7044 192.368 34.998 192.876 34.4121C193.384 33.8197 193.992 33.3672 194.702 33.0547C195.418 32.7422 196.222 32.5859 197.114 32.5859C198.247 32.5859 199.204 32.7943 199.985 33.2109C200.766 33.6276 201.372 34.2038 201.802 34.9395C202.238 35.6751 202.505 36.5182 202.602 37.4688H200.161C200.096 36.8568 199.953 36.3327 199.731 35.8965C199.516 35.4603 199.197 35.1283 198.774 34.9004C198.351 34.666 197.798 34.5488 197.114 34.5488C196.554 34.5488 196.066 34.653 195.649 34.8613C195.233 35.0697 194.884 35.3757 194.604 35.7793C194.324 36.1829 194.113 36.681 193.97 37.2734C193.833 37.8594 193.764 38.5299 193.764 39.2852V40.4863C193.764 41.2025 193.826 41.8535 193.95 42.4395C194.08 43.0189 194.276 43.5169 194.536 43.9336C194.803 44.3503 195.141 44.6725 195.552 44.9004C195.962 45.1283 196.453 45.2422 197.026 45.2422C197.723 45.2422 198.286 45.1315 198.716 44.9102C199.152 44.6888 199.481 44.3665 199.702 43.9434C199.93 43.5137 200.08 42.9896 200.151 42.3711ZM216.219 32.7812V47H213.778V34.7344H207.459V47H205.018V32.7812H216.219ZM230.568 32.7812V47H228.127V34.7344H221.809V47H219.367V32.7812H230.568ZM235.64 44.7344L235.63 46.4141C235.63 47.0781 235.464 47.7617 235.132 48.4648C234.8 49.168 234.361 49.7474 233.814 50.2031L232.554 49.4707C232.737 49.1777 232.903 48.8815 233.052 48.582C233.202 48.2826 233.323 47.9635 233.414 47.625C233.505 47.2865 233.55 46.9121 233.55 46.502V44.7344H235.64ZM68.0809 76.8809V71.8418C68.0809 71.4642 68.0125 71.1387 67.8758 70.8652C67.7391 70.5918 67.5307 70.3802 67.2508 70.2305C66.9773 70.0807 66.6323 70.0059 66.2156 70.0059C65.8315 70.0059 65.4995 70.071 65.2195 70.2012C64.9396 70.3314 64.7215 70.5072 64.5652 70.7285C64.409 70.9499 64.3309 71.2005 64.3309 71.4805H61.9871C61.9871 71.0638 62.088 70.6602 62.2898 70.2695C62.4917 69.8789 62.7846 69.5306 63.1687 69.2246C63.5529 68.9186 64.0118 68.6777 64.5457 68.502C65.0796 68.3262 65.6785 68.2383 66.3426 68.2383C67.1368 68.2383 67.84 68.3717 68.452 68.6387C69.0704 68.9056 69.5555 69.3092 69.907 69.8496C70.2651 70.3835 70.4441 71.054 70.4441 71.8613V76.5586C70.4441 77.0404 70.4767 77.4733 70.5418 77.8574C70.6134 78.235 70.7143 78.5638 70.8445 78.8438V79H68.4324C68.3217 78.7461 68.2339 78.4238 68.1687 78.0332C68.1102 77.6361 68.0809 77.252 68.0809 76.8809ZM68.4227 72.5742L68.4422 74.0293H66.7527C66.3165 74.0293 65.9324 74.0716 65.6004 74.1562C65.2684 74.2344 64.9917 74.3516 64.7703 74.5078C64.549 74.6641 64.3829 74.8529 64.2723 75.0742C64.1616 75.2956 64.1062 75.5462 64.1062 75.8262C64.1062 76.1061 64.1714 76.3633 64.3016 76.5977C64.4318 76.8255 64.6206 77.0046 64.868 77.1348C65.1219 77.265 65.4279 77.3301 65.7859 77.3301C66.2677 77.3301 66.6876 77.2324 67.0457 77.0371C67.4103 76.8353 67.6967 76.5911 67.9051 76.3047C68.1134 76.0117 68.2241 75.735 68.2371 75.4746L68.9988 76.5195C68.9207 76.7865 68.7872 77.0729 68.5984 77.3789C68.4096 77.6849 68.1622 77.9779 67.8562 78.2578C67.5568 78.5312 67.1954 78.7559 66.7723 78.9316C66.3556 79.1074 65.8738 79.1953 65.327 79.1953C64.6368 79.1953 64.0216 79.0586 63.4812 78.7852C62.9409 78.5052 62.5177 78.1309 62.2117 77.6621C61.9057 77.1868 61.7527 76.6497 61.7527 76.0508C61.7527 75.4909 61.8569 74.9961 62.0652 74.5664C62.2801 74.1302 62.5926 73.7656 63.0027 73.4727C63.4194 73.1797 63.9272 72.9583 64.5262 72.8086C65.1251 72.6523 65.8087 72.5742 66.577 72.5742H68.4227ZM78.1918 74.4785H74.8129L74.7934 72.8184H77.5668C78.0225 72.8184 78.3969 72.7728 78.6898 72.6816C78.9893 72.5905 79.2107 72.4538 79.3539 72.2715C79.4971 72.0827 79.5687 71.8548 79.5687 71.5879C79.5687 71.3665 79.5264 71.1745 79.4418 71.0117C79.3572 70.8424 79.2269 70.7057 79.0512 70.6016C78.8819 70.4909 78.6671 70.4128 78.4066 70.3672C78.1527 70.3151 77.8565 70.2891 77.518 70.2891H75.5941V79H73.2406V68.4336H77.518C78.195 68.4336 78.8038 68.4922 79.3441 68.6094C79.891 68.7266 80.3565 68.9056 80.7406 69.1465C81.1247 69.3874 81.4177 69.6934 81.6195 70.0645C81.8279 70.429 81.932 70.8587 81.932 71.3535C81.932 71.679 81.8604 71.985 81.7172 72.2715C81.5805 72.5579 81.3754 72.8118 81.1019 73.0332C80.8285 73.2546 80.4932 73.4368 80.0961 73.5801C79.699 73.7168 79.2432 73.8014 78.7289 73.834L78.1918 74.4785ZM78.1918 79H74.1293L75.0668 77.1445H78.1918C78.6085 77.1445 78.9535 77.0924 79.2269 76.9883C79.5004 76.8841 79.7022 76.7344 79.8324 76.5391C79.9691 76.3372 80.0375 76.0996 80.0375 75.8262C80.0375 75.5462 79.9724 75.3053 79.8422 75.1035C79.712 74.9017 79.5102 74.7487 79.2367 74.6445C78.9698 74.5339 78.6215 74.4785 78.1918 74.4785H75.5062L75.5258 72.8184H78.7191L79.393 73.4629C80.0635 73.5085 80.6202 73.6517 81.0629 73.8926C81.5056 74.1335 81.8376 74.4362 82.059 74.8008C82.2803 75.1654 82.391 75.5625 82.391 75.9922C82.391 76.487 82.2966 76.9232 82.1078 77.3008C81.9255 77.6784 81.6521 77.9941 81.2875 78.248C80.9294 78.4954 80.49 78.6842 79.9691 78.8145C79.4483 78.9382 78.8559 79 78.1918 79ZM89.3574 68.4336V79H86.9941V68.4336H89.3574ZM92.8242 68.4336V70.2891H83.5859V68.4336H92.8242ZM93.7262 73.834V73.6094C93.7262 72.8477 93.8368 72.1413 94.0582 71.4902C94.2796 70.8327 94.5986 70.263 95.0152 69.7812C95.4384 69.293 95.9527 68.9154 96.5582 68.6484C97.1702 68.375 97.8603 68.2383 98.6285 68.2383C99.4033 68.2383 100.093 68.375 100.699 68.6484C101.311 68.9154 101.828 69.293 102.252 69.7812C102.675 70.263 102.997 70.8327 103.218 71.4902C103.44 72.1413 103.55 72.8477 103.55 73.6094V73.834C103.55 74.5957 103.44 75.3021 103.218 75.9531C102.997 76.6042 102.675 77.1738 102.252 77.6621C101.828 78.1439 101.314 78.5215 100.709 78.7949C100.103 79.0618 99.4163 79.1953 98.648 79.1953C97.8733 79.1953 97.1799 79.0618 96.568 78.7949C95.9625 78.5215 95.4482 78.1439 95.025 77.6621C94.6018 77.1738 94.2796 76.6042 94.0582 75.9531C93.8368 75.3021 93.7262 74.5957 93.7262 73.834ZM96.0797 73.6094V73.834C96.0797 74.3092 96.1285 74.7585 96.2262 75.1816C96.3238 75.6048 96.4768 75.9759 96.6852 76.2949C96.8935 76.6139 97.1604 76.8646 97.4859 77.0469C97.8115 77.2292 98.1988 77.3203 98.648 77.3203C99.0842 77.3203 99.4618 77.2292 99.7809 77.0469C100.106 76.8646 100.373 76.6139 100.582 76.2949C100.79 75.9759 100.943 75.6048 101.041 75.1816C101.145 74.7585 101.197 74.3092 101.197 73.834V73.6094C101.197 73.1406 101.145 72.6979 101.041 72.2812C100.943 71.8581 100.787 71.4837 100.572 71.1582C100.364 70.8327 100.097 70.5788 99.7711 70.3965C99.4521 70.2077 99.0712 70.1133 98.6285 70.1133C98.1858 70.1133 97.8017 70.2077 97.4762 70.3965C97.1572 70.5788 96.8935 70.8327 96.6852 71.1582C96.4768 71.4837 96.3238 71.8581 96.2262 72.2812C96.1285 72.6979 96.0797 73.1406 96.0797 73.6094ZM108.036 70.4648V83.0625H105.683V68.4336H107.851L108.036 70.4648ZM114.921 73.6191V73.8242C114.921 74.5924 114.83 75.3053 114.648 75.9629C114.472 76.6139 114.208 77.1836 113.857 77.6719C113.512 78.1536 113.085 78.528 112.577 78.7949C112.07 79.0618 111.484 79.1953 110.82 79.1953C110.162 79.1953 109.586 79.0749 109.091 78.834C108.603 78.5866 108.189 78.2383 107.851 77.7891C107.512 77.3398 107.239 76.8125 107.03 76.207C106.829 75.5951 106.685 74.9245 106.601 74.1953V73.4043C106.685 72.6296 106.829 71.9264 107.03 71.2949C107.239 70.6634 107.512 70.1198 107.851 69.6641C108.189 69.2083 108.603 68.8568 109.091 68.6094C109.579 68.362 110.149 68.2383 110.8 68.2383C111.464 68.2383 112.053 68.3685 112.568 68.6289C113.082 68.8828 113.515 69.2474 113.866 69.7227C114.218 70.1914 114.482 70.7578 114.657 71.4219C114.833 72.0794 114.921 72.8118 114.921 73.6191ZM112.568 73.8242V73.6191C112.568 73.1309 112.522 72.6784 112.431 72.2617C112.34 71.8385 112.196 71.4674 112.001 71.1484C111.806 70.8294 111.555 70.582 111.249 70.4062C110.95 70.224 110.588 70.1328 110.165 70.1328C109.749 70.1328 109.39 70.2044 109.091 70.3477C108.792 70.4844 108.541 70.6764 108.339 70.9238C108.137 71.1712 107.981 71.4609 107.87 71.793C107.76 72.1185 107.682 72.4733 107.636 72.8574V74.752C107.714 75.2207 107.848 75.6504 108.036 76.041C108.225 76.4316 108.492 76.7441 108.837 76.9785C109.189 77.2064 109.638 77.3203 110.185 77.3203C110.608 77.3203 110.969 77.2292 111.269 77.0469C111.568 76.8646 111.812 76.6139 112.001 76.2949C112.196 75.9694 112.34 75.5951 112.431 75.1719C112.522 74.7487 112.568 74.2995 112.568 73.8242ZM119.505 75.5625L123.655 68.4336H126.009V79H123.655V71.8613L119.505 79H117.151V68.4336H119.505V75.5625ZM133.024 73.9512H130.993V72.7598H132.633C133.05 72.7598 133.382 72.7044 133.629 72.5938C133.883 72.4831 134.062 72.3301 134.166 72.1348C134.277 71.9329 134.332 71.6986 134.332 71.4316C134.332 71.1973 134.277 70.9759 134.166 70.7676C134.062 70.5527 133.883 70.377 133.629 70.2402C133.375 70.1035 133.03 70.0352 132.594 70.0352C132.236 70.0352 131.914 70.0938 131.627 70.2109C131.347 70.3281 131.126 70.4909 130.963 70.6992C130.801 70.9076 130.719 71.1484 130.719 71.4219H128.366C128.366 70.7643 128.551 70.1979 128.922 69.7227C129.3 69.2474 129.804 68.8828 130.436 68.6289C131.067 68.375 131.761 68.248 132.516 68.248C133.161 68.248 133.74 68.3164 134.254 68.4531C134.769 68.5833 135.205 68.7786 135.563 69.0391C135.927 69.293 136.204 69.612 136.393 69.9961C136.588 70.3737 136.686 70.8132 136.686 71.3145C136.686 71.6725 136.601 72.0111 136.432 72.3301C136.263 72.6491 136.019 72.9323 135.7 73.1797C135.381 73.4206 134.993 73.6094 134.537 73.7461C134.088 73.8828 133.584 73.9512 133.024 73.9512ZM130.993 73.2676H133.024C133.649 73.2676 134.202 73.3294 134.684 73.4531C135.166 73.5703 135.569 73.7461 135.895 73.9805C136.22 74.2148 136.465 74.5046 136.627 74.8496C136.797 75.1882 136.881 75.5788 136.881 76.0215C136.881 76.5163 136.774 76.9622 136.559 77.3594C136.351 77.75 136.051 78.082 135.661 78.3555C135.276 78.6289 134.817 78.8372 134.284 78.9805C133.75 79.1237 133.161 79.1953 132.516 79.1953C131.813 79.1953 131.129 79.0781 130.465 78.8438C129.808 78.6094 129.264 78.248 128.834 77.7598C128.411 77.265 128.2 76.6367 128.2 75.875H130.553C130.553 76.1419 130.635 76.3926 130.797 76.627C130.96 76.8613 131.194 77.0534 131.5 77.2031C131.806 77.3464 132.174 77.418 132.604 77.418C133.047 77.418 133.408 77.3496 133.688 77.2129C133.968 77.0697 134.176 76.8841 134.313 76.6562C134.45 76.4219 134.518 76.1745 134.518 75.9141C134.518 75.5625 134.45 75.2793 134.313 75.0645C134.176 74.8496 133.968 74.6934 133.688 74.5957C133.408 74.4915 133.056 74.4395 132.633 74.4395H130.993V73.2676ZM141.465 75.5625L145.615 68.4336H147.969V79H145.615V71.8613L141.465 79H139.111V68.4336H141.465V75.5625ZM152.972 70.4648V83.0625H150.619V68.4336H152.787L152.972 70.4648ZM159.857 73.6191V73.8242C159.857 74.5924 159.766 75.3053 159.584 75.9629C159.408 76.6139 159.144 77.1836 158.793 77.6719C158.448 78.1536 158.021 78.528 157.513 78.7949C157.005 79.0618 156.42 79.1953 155.755 79.1953C155.098 79.1953 154.522 79.0749 154.027 78.834C153.539 78.5866 153.125 78.2383 152.787 77.7891C152.448 77.3398 152.175 76.8125 151.966 76.207C151.765 75.5951 151.621 74.9245 151.537 74.1953V73.4043C151.621 72.6296 151.765 71.9264 151.966 71.2949C152.175 70.6634 152.448 70.1198 152.787 69.6641C153.125 69.2083 153.539 68.8568 154.027 68.6094C154.515 68.362 155.085 68.2383 155.736 68.2383C156.4 68.2383 156.989 68.3685 157.504 68.6289C158.018 68.8828 158.451 69.2474 158.802 69.7227C159.154 70.1914 159.418 70.7578 159.593 71.4219C159.769 72.0794 159.857 72.8118 159.857 73.6191ZM157.504 73.8242V73.6191C157.504 73.1309 157.458 72.6784 157.367 72.2617C157.276 71.8385 157.132 71.4674 156.937 71.1484C156.742 70.8294 156.491 70.582 156.185 70.4062C155.886 70.224 155.524 70.1328 155.101 70.1328C154.684 70.1328 154.326 70.2044 154.027 70.3477C153.727 70.4844 153.477 70.6764 153.275 70.9238C153.073 71.1712 152.917 71.4609 152.806 71.793C152.696 72.1185 152.617 72.4733 152.572 72.8574V74.752C152.65 75.2207 152.783 75.6504 152.972 76.041C153.161 76.4316 153.428 76.7441 153.773 76.9785C154.125 77.2064 154.574 77.3203 155.121 77.3203C155.544 77.3203 155.905 77.2292 156.205 77.0469C156.504 76.8646 156.748 76.6139 156.937 76.2949C157.132 75.9694 157.276 75.5951 157.367 75.1719C157.458 74.7487 157.504 74.2995 157.504 73.8242ZM164.958 77.8477L167.829 68.4336H170.349L166.111 80.6113C166.013 80.8717 165.886 81.1549 165.73 81.4609C165.573 81.7669 165.368 82.0566 165.114 82.3301C164.867 82.61 164.558 82.8346 164.187 83.0039C163.816 83.1797 163.366 83.2676 162.839 83.2676C162.631 83.2676 162.429 83.248 162.234 83.209C162.045 83.1764 161.866 83.1406 161.696 83.1016L161.687 81.3047C161.752 81.3112 161.83 81.3177 161.921 81.3242C162.019 81.3307 162.097 81.334 162.155 81.334C162.546 81.334 162.872 81.2852 163.132 81.1875C163.392 81.0964 163.604 80.9466 163.767 80.7383C163.936 80.5299 164.079 80.25 164.196 79.8984L164.958 77.8477ZM163.337 68.4336L165.847 76.3438L166.267 78.8242L164.636 79.2441L160.798 68.4336H163.337ZM174.278 75.5625L178.429 68.4336H180.782V79H178.429V71.8613L174.278 79H171.925V68.4336H174.278V75.5625ZM177.804 64.3711H179.552C179.552 64.9115 179.421 65.39 179.161 65.8066C178.907 66.2168 178.542 66.5391 178.067 66.7734C177.598 67.0078 177.039 67.125 176.387 67.125C175.404 67.125 174.626 66.8711 174.054 66.3633C173.487 65.849 173.204 65.1849 173.204 64.3711H174.952C174.952 64.7357 175.059 65.0579 175.274 65.3379C175.496 65.6113 175.867 65.748 176.387 65.748C176.902 65.748 177.266 65.6113 177.481 65.3379C177.696 65.0579 177.804 64.7357 177.804 64.3711ZM188.325 68.4336V79H185.961V68.4336H188.325ZM191.791 68.4336V70.2891H182.553V68.4336H191.791ZM197.449 79.1953C196.668 79.1953 195.962 79.0684 195.33 78.8145C194.705 78.554 194.171 78.1927 193.729 77.7305C193.292 77.2682 192.957 76.7246 192.723 76.0996C192.488 75.4746 192.371 74.8008 192.371 74.0781V73.6875C192.371 72.8607 192.492 72.112 192.732 71.4414C192.973 70.7708 193.309 70.1979 193.738 69.7227C194.168 69.2409 194.676 68.873 195.262 68.6191C195.848 68.3652 196.482 68.2383 197.166 68.2383C197.921 68.2383 198.582 68.3652 199.148 68.6191C199.715 68.873 200.184 69.2311 200.555 69.6934C200.932 70.1491 201.212 70.6927 201.395 71.3242C201.583 71.9557 201.678 72.6523 201.678 73.4141V74.4199H193.514V72.7305H199.354V72.5449C199.34 72.1217 199.256 71.7246 199.1 71.3535C198.95 70.9824 198.719 70.6829 198.406 70.4551C198.094 70.2272 197.677 70.1133 197.156 70.1133C196.766 70.1133 196.417 70.1979 196.111 70.3672C195.812 70.5299 195.561 70.7676 195.359 71.0801C195.158 71.3926 195.001 71.7702 194.891 72.2129C194.786 72.6491 194.734 73.1406 194.734 73.6875V74.0781C194.734 74.5404 194.796 74.9701 194.92 75.3672C195.05 75.7578 195.239 76.0996 195.486 76.3926C195.734 76.6855 196.033 76.9167 196.385 77.0859C196.736 77.2487 197.137 77.3301 197.586 77.3301C198.152 77.3301 198.657 77.2161 199.1 76.9883C199.542 76.7604 199.926 76.4382 200.252 76.0215L201.492 77.2227C201.264 77.5547 200.968 77.8737 200.604 78.1797C200.239 78.4792 199.793 78.7233 199.266 78.9121C198.745 79.1009 198.139 79.1953 197.449 79.1953ZM207.98 77.3203C208.364 77.3203 208.709 77.2454 209.015 77.0957C209.328 76.9395 209.578 76.7246 209.767 76.4512C209.962 76.1777 210.07 75.862 210.089 75.5039H212.306C212.293 76.1875 212.091 76.8092 211.701 77.3691C211.31 77.929 210.793 78.375 210.148 78.707C209.504 79.0326 208.791 79.1953 208.009 79.1953C207.202 79.1953 206.499 79.0586 205.9 78.7852C205.301 78.5052 204.803 78.1211 204.406 77.6328C204.009 77.1445 203.709 76.5814 203.507 75.9434C203.312 75.3053 203.214 74.6217 203.214 73.8926V73.5508C203.214 72.8216 203.312 72.138 203.507 71.5C203.709 70.8555 204.009 70.2891 204.406 69.8008C204.803 69.3125 205.301 68.9316 205.9 68.6582C206.499 68.3783 207.199 68.2383 208 68.2383C208.846 68.2383 209.588 68.4076 210.226 68.7461C210.864 69.0781 211.365 69.5436 211.73 70.1426C212.101 70.735 212.293 71.4251 212.306 72.2129H210.089C210.07 71.8223 209.972 71.4707 209.796 71.1582C209.627 70.8392 209.386 70.5853 209.074 70.3965C208.768 70.2077 208.4 70.1133 207.97 70.1133C207.495 70.1133 207.101 70.2109 206.789 70.4062C206.476 70.5951 206.232 70.8555 206.056 71.1875C205.88 71.513 205.754 71.8809 205.675 72.291C205.604 72.6947 205.568 73.1146 205.568 73.5508V73.8926C205.568 74.3288 205.604 74.752 205.675 75.1621C205.747 75.5723 205.871 75.9401 206.046 76.2656C206.229 76.5846 206.476 76.8418 206.789 77.0371C207.101 77.2259 207.498 77.3203 207.98 77.3203ZM216.011 71.793H219.126C220.038 71.793 220.812 71.946 221.45 72.252C222.088 72.5579 222.573 72.9844 222.905 73.5312C223.244 74.0716 223.413 74.6901 223.413 75.3867C223.413 75.901 223.319 76.3796 223.13 76.8223C222.941 77.2585 222.661 77.6393 222.29 77.9648C221.926 78.2904 221.476 78.5443 220.943 78.7266C220.415 78.9089 219.81 79 219.126 79H214.448V68.4336H216.812V77.1348H219.126C219.595 77.1348 219.969 77.0534 220.249 76.8906C220.529 76.7279 220.731 76.5163 220.855 76.2559C220.985 75.9954 221.05 75.7188 221.05 75.4258C221.05 75.1263 220.985 74.8431 220.855 74.5762C220.731 74.3092 220.529 74.0911 220.249 73.9219C219.969 73.7526 219.595 73.668 219.126 73.668H216.011V71.793Z" fill="#3F51B5"/>
<g filter="url(#filter0_ddd_17351_269458)">
<rect x="48" y="112" width="186" height="36" rx="4" fill="#3F51B5"/>
<path d="M126.244 130.502H123.708L123.694 129.251H125.909C126.283 129.251 126.6 129.196 126.859 129.087C127.124 128.973 127.324 128.811 127.461 128.602C127.598 128.387 127.666 128.13 127.666 127.829C127.666 127.496 127.602 127.225 127.475 127.016C127.347 126.806 127.151 126.653 126.887 126.558C126.627 126.462 126.294 126.414 125.889 126.414H124.228V135H122.512V125.047H125.889C126.436 125.047 126.923 125.099 127.352 125.204C127.785 125.309 128.151 125.473 128.452 125.696C128.757 125.915 128.988 126.193 129.143 126.53C129.302 126.868 129.382 127.269 129.382 127.733C129.382 128.144 129.284 128.52 129.088 128.861C128.892 129.199 128.603 129.474 128.22 129.688C127.837 129.903 127.361 130.03 126.791 130.071L126.244 130.502ZM126.169 135H123.168L123.94 133.64H126.169C126.556 133.64 126.88 133.576 127.14 133.448C127.399 133.316 127.593 133.136 127.721 132.908C127.853 132.676 127.919 132.405 127.919 132.095C127.919 131.771 127.862 131.491 127.748 131.254C127.634 131.012 127.454 130.828 127.208 130.7C126.962 130.568 126.641 130.502 126.244 130.502H124.316L124.33 129.251H126.839L127.229 129.723C127.775 129.741 128.224 129.862 128.575 130.085C128.931 130.308 129.195 130.598 129.368 130.953C129.541 131.309 129.628 131.691 129.628 132.102C129.628 132.735 129.489 133.266 129.211 133.694C128.938 134.123 128.543 134.449 128.028 134.672C127.513 134.891 126.894 135 126.169 135ZM133.063 125.047L135.175 128.677L137.288 125.047H139.263L136.255 129.976L139.338 135H137.342L135.175 131.302L133.008 135H131.005L134.095 129.976L131.081 125.047H133.063ZM148.762 129.75V130.297C148.762 131.049 148.664 131.723 148.468 132.32C148.272 132.917 147.992 133.425 147.627 133.845C147.267 134.264 146.834 134.585 146.328 134.809C145.822 135.027 145.262 135.137 144.647 135.137C144.036 135.137 143.478 135.027 142.972 134.809C142.471 134.585 142.035 134.264 141.666 133.845C141.297 133.425 141.01 132.917 140.805 132.32C140.604 131.723 140.504 131.049 140.504 130.297V129.75C140.504 128.998 140.604 128.326 140.805 127.733C141.005 127.136 141.288 126.628 141.653 126.209C142.022 125.785 142.457 125.464 142.958 125.245C143.464 125.022 144.022 124.91 144.633 124.91C145.248 124.91 145.809 125.022 146.315 125.245C146.821 125.464 147.256 125.785 147.62 126.209C147.985 126.628 148.265 127.136 148.461 127.733C148.662 128.326 148.762 128.998 148.762 129.75ZM147.046 130.297V129.736C147.046 129.18 146.991 128.69 146.882 128.267C146.777 127.838 146.62 127.48 146.41 127.193C146.205 126.902 145.952 126.683 145.652 126.537C145.351 126.387 145.011 126.312 144.633 126.312C144.255 126.312 143.918 126.387 143.621 126.537C143.325 126.683 143.072 126.902 142.862 127.193C142.657 127.48 142.5 127.838 142.391 128.267C142.281 128.69 142.227 129.18 142.227 129.736V130.297C142.227 130.853 142.281 131.345 142.391 131.773C142.5 132.202 142.66 132.564 142.869 132.86C143.084 133.152 143.339 133.373 143.635 133.523C143.931 133.669 144.268 133.742 144.647 133.742C145.029 133.742 145.369 133.669 145.665 133.523C145.961 133.373 146.212 133.152 146.417 132.86C146.622 132.564 146.777 132.202 146.882 131.773C146.991 131.345 147.046 130.853 147.046 130.297ZM158.507 133.64V135H151.172V133.64H158.507ZM151.596 133.64V137.447H149.955L149.893 133.64H151.596ZM159.833 133.64L159.73 137.44H158.117V133.64H159.833ZM157.304 125.047V126.414H152.71V125.047H157.304ZM158.616 125.047V135H156.907V125.047H158.616ZM152.368 125.047H154.084L153.845 129.08C153.808 129.718 153.742 130.292 153.646 130.803C153.551 131.313 153.434 131.771 153.298 132.177C153.165 132.578 153.015 132.933 152.846 133.243C152.678 133.549 152.498 133.813 152.306 134.036C152.115 134.259 151.919 134.451 151.719 134.61C151.523 134.765 151.329 134.895 151.138 135H150.221V133.64H150.666C150.789 133.526 150.926 133.362 151.076 133.147C151.226 132.929 151.372 132.644 151.513 132.293C151.659 131.938 151.787 131.498 151.896 130.974C152.006 130.45 152.081 129.818 152.122 129.08L152.368 125.047Z" fill="white"/>
</g>
<defs>
<filter id="filter0_ddd_17351_269458" x="43" y="108" width="196" height="46" filterUnits="userSpaceOnUse" color-interpolation-filters="sRGB">
<feFlood flood-opacity="0" result="BackgroundImageFix"/>
<feColorMatrix in="SourceAlpha" type="matrix" values="0 0 0 0 0 0 0 0 0 0 0 0 0 0 0 0 0 0 127 0" result="hardAlpha"/>
<feOffset dy="1"/>
<feGaussianBlur stdDeviation="2.5"/>
<feColorMatrix type="matrix" values="0 0 0 0 0 0 0 0 0 0 0 0 0 0 0 0 0 0 0.12 0"/>
<feBlend mode="normal" in2="BackgroundImageFix" result="effect1_dropShadow_17351_269458"/>
<feColorMatrix in="SourceAlpha" type="matrix" values="0 0 0 0 0 0 0 0 0 0 0 0 0 0 0 0 0 0 127 0" result="hardAlpha"/>
<feOffset dy="2"/>
<feGaussianBlur stdDeviation="1"/>
<feColorMatrix type="matrix" values="0 0 0 0 0 0 0 0 0 0 0 0 0 0 0 0 0 0 0.14 0"/>
<feBlend mode="normal" in2="effect1_dropShadow_17351_269458" result="effect2_dropShadow_17351_269458"/>
<feColorMatrix in="SourceAlpha" type="matrix" values="0 0 0 0 0 0 0 0 0 0 0 0 0 0 0 0 0 0 127 0" result="hardAlpha"/>
<feMorphology radius="2" operator="erode" in="SourceAlpha" result="effect3_dropShadow_17351_269458"/>
<feOffset dy="3"/>
<feGaussianBlur stdDeviation="0.5"/>
<feColorMatrix type="matrix" values="0 0 0 0 0 0 0 0 0 0 0 0 0 0 0 0 0 0 0.2 0"/>
<feBlend mode="normal" in2="effect2_dropShadow_17351_269458" result="effect3_dropShadow_17351_269458"/>
<feBlend mode="normal" in="SourceGraphic" in2="effect3_dropShadow_17351_269458" result="shape"/>
</filter>
</defs>
</svg>
